<svg width="16" height="22" viewBox="0 0 16 22" fill="none" xmlns="http://www.w3.org/2000/svg">
<g id="Vector 3">
<path d="M6.77982 13.1986V8.80142C2.66973 8.80142 1.21407 10.2671 1 11C1.04281 11.7329 2.46422 13.1986 6.77982 13.1986Z" fill="#D9D9D9"/>
<path d="M6.77982 8.80142C8.3211 8.80142 11.5064 8.80142 11.9174 8.80142C16.0275 8.80142 16.0275 4.97163 11.9174 1M6.77982 8.80142C6.77982 7.24114 6.77982 4.82979 10.3761 4.82979M6.77982 8.80142C2.66973 8.80142 1.21407 10.2671 1 11C1.04281 11.7329 2.46422 13.1986 6.77982 13.1986M6.77982 8.80142V13.1986M6.77982 13.1986C8.3211 13.1986 11.5064 13.1986 11.9174 13.1986C16.0275 13.1986 16.0275 18.4468 11.9174 21M6.77982 13.1986C6.77982 14.617 7.0367 17.5957 10.3761 17.5957" stroke="#D9D9D9"/>
</g>
</svg>
