<svg width="16" height="22" viewBox="0 0 16 22" fill="none" xmlns="http://www.w3.org/2000/svg">
<g id="Vector 4">
<path d="M9.22018 8.80142L9.22018 13.1986C13.3303 13.1986 14.7859 11.7329 15 11C14.9572 10.2671 13.5358 8.80142 9.22018 8.80142Z" fill="#D9D9D9"/>
<path d="M9.22018 13.1986C7.6789 13.1986 4.49358 13.1986 4.08257 13.1986C-0.0275219 13.1986 -0.0275222 17.0284 4.08257 21M9.22018 13.1986C9.22018 14.7589 9.22018 17.1702 5.62385 17.1702M9.22018 13.1986C13.3303 13.1986 14.7859 11.7329 15 11C14.9572 10.2671 13.5358 8.80142 9.22018 8.80142M9.22018 13.1986L9.22018 8.80142M9.22018 8.80142C7.6789 8.80142 4.49358 8.80142 4.08257 8.80142C-0.0275215 8.80142 -0.027521 3.55319 4.08257 0.999999M9.22018 8.80142C9.22018 7.38298 8.9633 4.40425 5.62386 4.40425" stroke="#D9D9D9"/>
</g>
</svg>
